<?xml version="1.0" encoding="utf-8"?>
<!-- Generator: Adobe Illustrator 16.0.4, SVG Export Plug-In . SVG Version: 6.00 Build 0)  -->
<!DOCTYPE svg PUBLIC "-//W3C//DTD SVG 1.1//EN" "http://www.w3.org/Graphics/SVG/1.1/DTD/svg11.dtd">
<svg version="1.1" id="Ebene_1" xmlns="http://www.w3.org/2000/svg" xmlns:xlink="http://www.w3.org/1999/xlink" x="0px" y="0px"
	 width="235.275px" height="235.275px" viewBox="0 0 235.275 235.275" enable-background="new 0 0 235.275 235.275"
	 xml:space="preserve">
<g>
	<rect x="4.252" y="4.252" fill="#FFFFFF" width="226.771" height="226.771"/>
	<linearGradient id="SVGID_1_" gradientUnits="userSpaceOnUse" x1="4.252" y1="4.252" x2="231.024" y2="231.024">
		<stop  offset="0" style="stop-color:#F9C53D"/>
		<stop  offset="0.2" style="stop-color:#F98422"/>
		<stop  offset="0.4" style="stop-color:#F9491B"/>
		<stop  offset="0.6" style="stop-color:#7D5E96"/>
		<stop  offset="0.8" style="stop-color:#3AA7D3"/>
		<stop  offset="1" style="stop-color:#62D7A0"/>
	</linearGradient>
	<path fill="url(#SVGID_1_)" d="M101.39,4.252v72.062c-0.001-1.042-0.398-2.085-1.194-2.88c-1.595-1.594-4.175-1.594-5.768,0
		c-0.796,0.795-1.193,1.838-1.194,2.881V4.252H4.252v226.771h88.981V76.32c0.001,1.043,0.398,2.086,1.194,2.882
		c1.593,1.593,4.173,1.593,5.768-0.002c0.796-0.795,1.193-1.838,1.194-2.88v154.703h129.634V4.252H101.39z"/>
	<polygon opacity="0.1" fill="#1C1C1B" points="88.964,94.585 78.921,114.908 58.412,94.398 59.356,110.856 46.11,97.647
		23.066,100.057 20.379,115.187 40.228,135.039 37.192,136.026 24.764,123.595 22.149,136.247 93.233,207.331 93.233,98.853 	"/>
	<polygon opacity="0.1" fill="#1C1C1B" points="231.023,116.551 211.098,96.597 190.406,98.969 185.116,103.029 176.501,94.415
		146.663,101.522 139.34,94.374 107.455,101.082 101.39,95.012 101.39,215.486 116.927,231.023 231.023,231.023 	"/>
	<path opacity="0.1" fill="#1C1C1B" d="M101.39,74.629v1.686c0-0.018-0.005-0.036-0.005-0.054c0,0.038,0,0.075,0,0.113
		c0-0.018,0.005-0.036,0.005-0.054v9.843l15.014,15.013l5.768-5.767L101.39,74.629z"/>
	<g>
		<path fill="#FFFFFF" d="M46.097,136.536c-2.555,2.271-6.186,3.235-10.272,3.235h-4.312c-4.938,0-9.363-2.497-11.804-6.413
			c-0.852-1.246-1.362-2.495-1.588-3.688c-0.456-2.328-0.399-3.291-0.399-4.597v0.113c0-1.136,0.057-2.212,1.816-2.212h3.86
			c0.907,0,1.474,0.451,1.701,1.361c0.228,0.737,0.172,0.907,0.169,1.815c0.001,0.283,0.057,0.795,0.115,1.532
			c0.624,2.78,3.177,4.823,6.129,4.823h4.312c3.405,0,6.356-1.873,6.866-4.88c0.059-0.397,0.115-0.737,0.115-1.136
			c0.056-0.737,0.113-2.44-0.852-3.291c-1.589-1.361-5.052-1.93-9.137-2.894c-7.264-1.647-15.096-3.859-15.096-11.465v-0.795
			c0-1.191-0.057-2.381,0.341-3.914l-0.058,0.057c1.193-6.299,7.038-10.895,13.508-10.895h4.312c3.405,0,6.641,1.248,9.194,3.291
			c2.553,2.042,4.144,5.958,3.973,10.326c-0.059,1.135-0.059,2.215-1.816,2.215h-3.746c-1.078,0-1.76-0.909-1.815-1.816
			c-0.17-4.823-2.156-6.64-5.788-6.64h-4.312c-2.896,0-5.562,2.1-6.186,4.995v-0.059c-0.171,0.966-0.51,2.667,0.907,4.087
			c0.739,0.737,1.589,1.247,2.438,1.477l6.528,1.815c3.405,0.964,5.845,1.588,7.263,2.1c1.533,0.51,2.838,1.192,3.973,1.929
			c2.328,1.588,3.973,4.312,3.972,8.172C50.41,129.501,48.65,134.268,46.097,136.536z"/>
		<path fill="#FFFFFF" d="M87.354,102.091l-6.071,16.854l-5.843,16.173l-0.968,2.667c-0.396,0.909-0.68,1.475-1.813,1.475h-4.995
			c-1.305,0-1.589-0.681-1.815-1.418l-3.916-11.293c-3.573-10.214-6.696-19.692-10.837-29.905c-0.229-0.398-0.229-0.795-0.229-0.966
			c0-1.19,0.624-1.814,1.873-1.814h4.427c1.134,0,1.418,0.736,1.813,1.476l11.18,33.083l11.069-33.083l-0.061,0.339
			c0-0.17,0.114-0.17,0.115-0.227c0.341-1.08,0.964-1.588,1.817-1.588h4.481c0.909,0,1.817,0.907,1.817,1.814
			C89.399,95.849,88.659,98.403,87.354,102.091z"/>
		<path fill="#FFFFFF" d="M101.376,137.445c0,0.907-0.795,1.814-1.875,1.814h-3.856c-1.081,0-1.704-0.907-1.704-1.814l-0.113-41.768
			c0-0.907,0.736-1.814,1.817-1.814h3.856c1.08,0,1.875,0.907,1.875,1.814V137.445z"/>
		<path fill="#FFFFFF" d="M107.958,139.26c-1.758,0-1.871-1.133-1.872-2.269l-0.001-2.441c0.001-0.624,0.229-1.02,0.511-1.418
			l23.209-31.609h-20.257c-1.986,0-2.27-0.282-2.27-2.269v-3.178c0-1.137-0.056-2.213,1.928-2.213h28.885
			c1.08,0,1.817,0.907,1.817,1.814v3.576c0,0.396-0.058,0.851-0.454,1.248l-22.528,31.099h21.505c1.988,0,2.215,0.283,2.215,2.269
			v3.122c0,1.136-0.113,2.269-1.872,2.269H107.958z"/>
		<path fill="#FFFFFF" d="M145.075,139.26c-1.76,0-1.872-1.133-1.874-2.269l-0.003-2.441c0.003-0.624,0.229-1.02,0.514-1.418
			l23.209-31.609h-20.258c-1.986,0-2.271-0.282-2.271-2.269v-3.178c0-1.137-0.054-2.213,1.93-2.213h28.885
			c1.078,0,1.817,0.907,1.817,1.814v3.576c0,0.396-0.058,0.851-0.455,1.248l-22.53,31.099h21.507c1.988,0,2.215,0.283,2.215,2.269
			v3.122c0,1.136-0.113,2.269-1.873,2.269H145.075z"/>
		<path fill="#FFFFFF" d="M204.548,93.863c5.106,0,9.592,4.481,9.592,9.645c0,4.315-2.328,6.81-5.564,9.024
			c1.193,3.179,2.329,6.128,3.464,9.308c1.815,4.994,3.687,10.044,5.674,15.095c0.625,1.531-0.228,2.325-1.76,2.325h-4.313
			c-1.191,0-1.53-0.681-1.814-1.418l-8.172-21.622c-3.916,2.045-7.377,3.976-11.464,6.073v14.755c0,1.136-0.058,2.212-1.815,2.212
			h-4.028c-1.078,0-1.758-0.907-1.76-1.814l-0.113-41.768c0.002-0.907,0.795-1.814,1.873-1.814H204.548z M190.189,101.41v12.371
			c4.482-2.215,14.587-7.207,15.775-9.081l-0.001,0.059c0.23-0.341,0.344-0.739,0.344-1.193c-0.002-1.189-0.911-2.155-2.216-2.155
			H190.189z"/>
	</g>
</g>
</svg>
